<?xml version="1.0" encoding="UTF-8" standalone="no"?>
<svg
   xmlns:dc="http://purl.org/dc/elements/1.1/"
   xmlns:cc="http://creativecommons.org/ns#"
   xmlns:rdf="http://www.w3.org/1999/02/22-rdf-syntax-ns#"
   xmlns:svg="http://www.w3.org/2000/svg"
   xmlns="http://www.w3.org/2000/svg"
   viewBox="0 0 65.509331 87.351731"
   height="87.35173"
   width="65.509331"
   xml:space="preserve"
   id="svg2"
   version="1.1"><metadata
     id="metadata8"><rdf:RDF><cc:Work
         rdf:about=""><dc:format>image/svg+xml</dc:format><dc:type
           rdf:resource="http://purl.org/dc/dcmitype/StillImage" /></cc:Work></rdf:RDF></metadata><defs
     id="defs6"><clipPath
       id="clipPath18"
       clipPathUnits="userSpaceOnUse"><path
         id="path16"
         d="M 0,65.514 H 49.133 V 0 H 0 Z" /></clipPath></defs><g
     transform="matrix(1.3333333,0,0,-1.3333333,-5.3333332e-4,87.351731)"
     id="g10"><g
       id="g12"><g
         clip-path="url(#clipPath18)"
         id="g14"><g
           transform="translate(24.5664,32.7568)"
           id="g20"><path
             id="path22"
             style="fill:#8c8c8c;fill-opacity:1;fill-rule:nonzero;stroke:none"
             d="m 0,0 c -4.517,0 -8.188,3.672 -8.188,8.188 0,4.517 3.671,8.19 8.188,8.19 4.518,0 8.189,-3.673 8.189,-8.19 C 8.189,3.672 4.518,0 0,0 m 0,32.757 c -13.547,0 -24.566,-11.022 -24.566,-24.569 0,-5.162 1.607,-10.11 4.637,-14.322 l 0.643,-0.903 17.648,-24.9 c 0.387,-0.515 0.995,-0.82 1.638,-0.82 0.643,0 1.251,0.305 1.638,0.82 l 17.426,24.604 0.862,1.191 c 3.035,4.22 4.64,9.168 4.64,14.33 0,13.547 -11.019,24.569 -24.566,24.569" /></g></g></g></g></svg>
